<?xml version="1.0" ?><svg xmlns="http://www.w3.org/2000/svg" viewBox="0 0 32 32"><g id="_102_loading-02" data-name="102 loading-02"><path d="M5,18a2,2,0,1,1,2-2A2,2,0,0,1,5,18Zm0-2Z"/><path d="M8.22,10.22a2,2,0,0,1-1.41-.58,2,2,0,0,1,0-2.83,2,2,0,0,1,2.83,0,2,2,0,0,1,0,2.83h0A2,2,0,0,1,8.22,10.22Z"/><circle cx="16" cy="5" r="2"/><path d="M23.78,10.22a2,2,0,0,1-1.42-.58h0a2,2,0,1,1,2.83-2.83,2,2,0,0,1,0,2.83A2,2,0,0,1,23.78,10.22Zm0-2Z"/><path d="M27,18a2,2,0,1,1,2-2A2,2,0,0,1,27,18Zm0-2Z"/><path d="M23.78,25.78a2,2,0,0,1-1.42-.59,2,2,0,0,1,0-2.83h0a2.06,2.06,0,0,1,2.83,0,2,2,0,0,1-1.41,3.42Z"/><circle cx="16" cy="27" r="2"/><path d="M8.22,25.78a2,2,0,0,1-1.41-3.42,2.06,2.06,0,0,1,2.83,0h0a2,2,0,0,1,0,2.83A2,2,0,0,1,8.22,25.78Zm0-2Z"/></g></svg>