<svg width="140" height="150" viewBox="0 0 140 150" fill="none" xmlns="http://www.w3.org/2000/svg">
<g clip-path="url(#clip0_9_2)">
<rect width="140" height="150" fill="white"/>
<path d="M45 37.6055C52.3047 37.6055 58.5352 38.875 63.6914 41.4141V59.3438L63.5742 59.4609C61.3867 56.1016 56.7773 53.875 49.7461 52.7812C47.6758 52.4297 45.0586 52.2539 41.8945 52.2539C38.7305 52.2539 35.625 52.8594 32.5781 54.0703C29.5312 55.2422 27.0312 56.9219 25.0781 59.1094C21.2891 63.3672 19.3945 69.4414 19.3945 77.332C19.3945 86.5117 21.7969 93.3477 26.6016 97.8398C30.5859 101.59 35.8594 103.465 42.4219 103.465C49.8438 103.465 55.8594 101.883 60.4688 98.7188C62.1484 97.5859 63.5742 96.1797 64.7461 94.5L64.9219 94.6172V111.023C58.9453 115.984 50.8984 118.465 40.7812 118.465C28.8672 118.465 19.5312 114.676 12.7734 107.098C6.28906 99.8711 3.04688 90.3008 3.04688 78.3867C3.04688 65.7695 6.60156 55.8281 13.7109 48.5625C20.8984 41.2578 31.3281 37.6055 45 37.6055ZM104.883 86.707C103.711 86.7852 102.461 86.8242 101.133 86.8242C99.8047 86.8242 97.832 86.7266 95.2148 86.5312V117H79.6875V38.6602C85.1562 37.957 91.875 37.6055 99.8438 37.6055C110.703 37.6055 118.789 39.6172 124.102 43.6406C129.453 47.625 132.129 53.7969 132.129 62.1562C132.129 68.6406 129.688 74.1875 124.805 78.7969C123.203 80.2812 121.367 81.5703 119.297 82.6641L131.25 107.859C133.594 113.055 135.391 116.141 136.641 117.117L136.348 117.41C132.559 116.785 126.602 116.805 118.477 117.469L104.883 86.707ZM100.957 51.4336C98.9648 51.4336 97.0508 51.5313 95.2148 51.7266V74.1094C97.1289 74.3828 99.375 74.5195 101.953 74.5195C104.531 74.5195 106.699 74.3047 108.457 73.875C110.215 73.4062 111.738 72.7031 113.027 71.7656C115.801 69.6953 117.188 66.5898 117.188 62.4492C117.188 58.3086 115.742 55.3984 112.852 53.7188C110.156 52.1953 106.191 51.4336 100.957 51.4336Z" fill="#FF7800"/>
</g>
<defs>
<clipPath id="clip0_9_2">
<rect width="140" height="150" fill="white"/>
</clipPath>
</defs>
</svg>
