<?xml version="1.0" encoding="UTF-8"?>
<!DOCTYPE svg PUBLIC "-//W3C//DTD SVG 1.1//EN" "http://www.w3.org/Graphics/SVG/1.1/DTD/svg11.dtd">
<svg xmlns="http://www.w3.org/2000/svg" version="1.1" width="512px" height="512px" style="shape-rendering:geometricPrecision; text-rendering:geometricPrecision; image-rendering:optimizeQuality; fill-rule:evenodd; clip-rule:evenodd" xmlns:xlink="http://www.w3.org/1999/xlink">
<g><path style="opacity:1" fill="#fe7700" d="M 247.5,-0.5 C 252.833,-0.5 258.167,-0.5 263.5,-0.5C 270.669,2.50845 275.169,7.84178 277,15.5C 277.667,40.1667 277.667,64.8333 277,89.5C 273.158,103.48 263.992,108.98 249.5,106C 240.602,104.056 235.435,98.5559 234,89.5C 233.333,64.8333 233.333,40.1667 234,15.5C 235.831,7.84178 240.331,2.50845 247.5,-0.5 Z"/></g>
<g><path style="opacity:1" fill="#fd7700" d="M 137.5,29.5 C 144.348,29.9492 150.181,32.6159 155,37.5C 167.066,57.2406 178.732,77.2406 190,97.5C 195.431,115.617 188.765,126.617 170,130.5C 162.536,129.268 156.202,125.935 151,120.5C 140,101.167 129,81.8333 118,62.5C 113.268,44.6065 119.768,33.6065 137.5,29.5 Z"/></g>
<g><path style="opacity:1" fill="#fd7700" d="M 371.5,30.5 C 390.833,32.8046 397.999,43.4712 393,62.5C 382,81.8333 371,101.167 360,120.5C 348.716,132.333 336.716,133.333 324,123.5C 318.436,115.351 317.436,106.684 321,97.5C 332.268,77.2406 343.934,57.2406 356,37.5C 360.72,33.8847 365.887,31.5513 371.5,30.5 Z"/></g>
<g><path style="opacity:1" fill="#fd7700" d="M 452.5,115.5 C 468.728,114.563 478.395,122.063 481.5,138C 480.814,146.68 476.814,153.346 469.5,158C 450.167,169 430.833,180 411.5,191C 400.025,193.842 390.525,190.675 383,181.5C 377.4,169.398 379.9,159.231 390.5,151C 411.098,138.873 431.765,127.04 452.5,115.5 Z"/></g>
<g><path style="opacity:1" fill="#fd7700" d="M 46.5,116.5 C 51.9302,116.161 57.2636,116.661 62.5,118C 81.8333,129 101.167,140 120.5,151C 132.377,163.271 132.377,175.605 120.5,188C 113.627,192.458 106.293,193.458 98.5,191C 78.0019,179.252 57.6686,167.252 37.5,155C 26.8939,142.882 27.5606,131.215 39.5,120C 41.9252,118.787 44.2585,117.621 46.5,116.5 Z"/></g>
<g><path style="opacity:1" fill="#fe7700" d="M -0.5,263.5 C -0.5,258.167 -0.5,252.833 -0.5,247.5C 2.50845,240.331 7.84178,235.831 15.5,234C 40.1667,233.333 64.8333,233.333 89.5,234C 103.48,237.842 108.98,247.008 106,261.5C 104.056,270.398 98.5559,275.565 89.5,277C 64.8333,277.667 40.1667,277.667 15.5,277C 7.84178,275.169 2.50845,270.669 -0.5,263.5 Z"/></g>
<g><path style="opacity:1" fill="#fe7700" d="M 511.5,247.5 C 511.5,252.833 511.5,258.167 511.5,263.5C 508.492,270.669 503.158,275.169 495.5,277C 470.833,277.667 446.167,277.667 421.5,277C 407.52,273.158 402.02,263.992 405,249.5C 406.944,240.602 412.444,235.435 421.5,234C 446.167,233.333 470.833,233.333 495.5,234C 503.158,235.831 508.492,240.331 511.5,247.5 Z"/></g>
<g><path style="opacity:1" fill="#fd7700" d="M 107.5,317.5 C 124.966,320.119 132.466,330.119 130,347.5C 127.985,352.519 124.818,356.685 120.5,360C 100.402,371.767 80.0685,383.1 59.5,394C 49.3722,395.957 40.8722,393.124 34,385.5C 28.0017,374.957 29.1684,365.123 37.5,356C 56.1667,345 74.8333,334 93.5,323C 97.9615,320.255 102.628,318.422 107.5,317.5 Z"/></g>
<g><path style="opacity:1" fill="#fd7700" d="M 400.5,318.5 C 406.511,318.723 412.177,320.223 417.5,323C 436.167,334 454.833,345 473.5,356C 483.022,367.711 482.688,379.044 472.5,390C 465.778,394.25 458.445,395.583 450.5,394C 430.5,382.667 410.5,371.333 390.5,360C 378.626,348.798 377.626,336.798 387.5,324C 391.561,321.265 395.894,319.432 400.5,318.5 Z"/></g>
<g><path style="opacity:1" fill="#fd7700" d="M 338.5,379.5 C 347.579,379.409 354.746,383.076 360,390.5C 370.747,409.664 381.747,428.664 393,447.5C 398.835,465.833 392.335,476.833 373.5,480.5C 365.072,479.75 358.238,476.084 353,469.5C 341.667,449.5 330.333,429.5 319,409.5C 316.667,393.845 323.167,383.845 338.5,379.5 Z"/></g>
<g><path style="opacity:1" fill="#fd7700" d="M 167.5,381.5 C 187.732,384.28 195.232,395.613 190,415.5C 179.333,433.5 168.667,451.5 158,469.5C 148.976,480.132 138.142,482.632 125.5,477C 116.612,469.254 114.112,459.754 118,448.5C 129,429.167 140,409.833 151,390.5C 155.804,386.018 161.304,383.018 167.5,381.5 Z"/></g>
<g><path style="opacity:1" fill="#fe7700" d="M 263.5,511.5 C 258.167,511.5 252.833,511.5 247.5,511.5C 240.331,508.492 235.831,503.158 234,495.5C 233.333,470.833 233.333,446.167 234,421.5C 237.842,407.52 247.008,402.02 261.5,405C 270.398,406.944 275.565,412.444 277,421.5C 277.667,446.167 277.667,470.833 277,495.5C 275.169,503.158 270.669,508.492 263.5,511.5 Z"/></g>
</svg>
